<svg xmlns="http://www.w3.org/2000/svg"><symbol id="mail" viewBox="0 0 18 12"><title>mail</title><g fill="#919191" fill-rule="evenodd"><path d="M1.708 1A.708.708 0 0 0 1 1.707v8.086c0 .39.317.707.708.707h13.835c.39 0 .707-.317.707-.707V1.707A.708.708 0 0 0 15.543 1H1.708zm13.835 10.5H1.708A1.71 1.71 0 0 1 0 9.793V1.707A1.71 1.71 0 0 1 1.708 0h13.835a1.71 1.71 0 0 1 1.707 1.707v8.086a1.71 1.71 0 0 1-1.707 1.707z"/><path d="M8.625 6.25a.497.497 0 0 1-.251-.067l-6.458-3.75a.501.501 0 0 1 .502-.866l6.21 3.606 6.209-3.525a.5.5 0 0 1 .494.87L8.872 6.185a.496.496 0 0 1-.247.065"/></g></symbol></svg>