<?xml version="1.0" encoding="UTF-8"?>
<svg width="83px" height="80px" viewBox="0 0 83 80" version="1.1" xmlns="http://www.w3.org/2000/svg" xmlns:xlink="http://www.w3.org/1999/xlink">
    <!-- Generator: Sketch 47.1 (45422) - http://www.bohemiancoding.com/sketch -->
    <title>animation</title>
    <desc>Created with Sketch.</desc>
    <defs></defs>
    <g id="Symbols" stroke="none" stroke-width="1" fill="none" fill-rule="evenodd">
        <g id="animation" fill-rule="nonzero" fill="#FFFFFF">
            <g id="Shape">
                <path d="M81.05,20 C79.941,20 79.074,20.899 79.074,22 C79.074,31.559 62.097,39.639 41.987,39.639 C21.877,39.639 4.895,31.559 4.895,22 C4.895,20.899 4.057,20 2.948,20 C1.847,20 1,20.899 1,22 L1,58.039 C1,70.169 18.96,79.669 42,79.669 C65.04,79.669 83,70.169 83,58.039 L83,22 C83,20.899 82.15,20 81.05,20 Z M42.98,62 L41.99,62 C39.8,62 38,60.729 38,58.549 L38,52.6 C38,50.4 39.8,49 41.99,49 L42.98,49 C45.17,49 47,50.399 47,52.6 L47,58.549 C47,60.729 45.17,62 42.98,62 Z M56.12,49.709 C56.09,47.459 57.66,45.419 59.66,45.18 L60.55,45.079 C62.54,44.829 64.17,46.449 64.22,48.68 L64.321,54.78 C64.35,57.04 62.77,59.06 60.791,59.3 L59.891,59.41 C57.902,59.67 56.261,58.05 56.221,55.81 L56.12,49.709 Z M72,48.68 L72,44.15 C72,41.61 73.265,39.15 74.685,38.66 L75.383,38.44 C76.782,37.95 77.961,39.629 77.951,42.169 L77.955,46.709 C77.955,49.26 76.823,51.72 75.413,52.199 L74.661,52.409 C73.241,52.899 72,51.229 72,48.68 Z M28.84,49.709 L28.75,55.81 C28.71,58.049 27.07,59.669 25.08,59.41 L24.18,59.3 C22.191,59.061 20.611,57.04 20.651,54.78 L20.751,48.68 C20.791,46.45 22.421,44.829 24.411,45.079 L25.31,45.18 C27.3,45.419 28.89,47.459 28.84,49.709 Z M6,42.169 C6,39.629 7.15,37.949 8.561,38.44 L9.311,38.66 C10.731,39.15 12,41.61 12,44.15 L12,48.68 C12,51.23 10.745,52.9 9.346,52.409 L8.638,52.199 C7.228,51.72 6,49.26 6,46.709 L6,42.169 Z"></path>
                <path d="M2.904,23.972 C1.8,23.972 0.904,23.076 0.904,21.972 C0.904,9.852 18.956,0.358 42,0.358 C56,0.358 68.865,3.97 76.417,10.021 C77.278,10.711 77.417,11.97 76.727,12.832 C76.037,13.696 74.777,13.833 73.915,13.142 C67.153,7.724 54.924,4.357 42,4.357 C21.892,4.357 4.904,12.423 4.904,21.971 C4.904,23.076 4.009,23.972 2.904,23.972 Z"></path>
                <path d="M42,28.449 C29.716,28.449 18.893,31.217 11.587,35.652 C12.616,36.743 13.582,37.755 14.646,38.527 C21.334,34.834 31.202,32.449 42,32.449 C52.823,32.449 62.711,34.845 69.399,38.552 C70.832,37.884 72.362,37.274 73.483,36.331 C66.189,31.5 54.899,28.449 42,28.449 Z"></path>
                <path d="M42.36,22.484 L41.541,22.484 C38.641,22.484 36.281,20.121 36.281,17.215 L36.281,12.33 C36.281,9.43 38.64,7.07 41.541,7.07 L42.36,7.07 C45.26,7.07 47.62,9.429 47.62,12.33 L47.62,17.216 C47.62,20.121 45.261,22.484 42.36,22.484 Z M41.541,11.07 C40.847,11.07 40.281,11.635 40.281,12.33 L40.281,17.216 C40.281,17.916 40.846,18.485 41.541,18.485 L42.36,18.485 C43.054,18.485 43.62,17.916 43.62,17.216 L43.62,12.33 C43.62,11.635 43.055,11.07 42.36,11.07 L41.541,11.07 L41.541,11.07 Z"></path>
                <path d="M26.769,25.421 C24.193,25.421 22.136,23.245 22.086,20.467 L22.013,15.439 C21.95,12.576 23.991,10.055 26.659,9.715 L27.386,9.622 C30.271,9.249 32.611,11.552 32.663,14.539 L32.745,19.555 C32.797,22.438 30.752,24.956 28.09,25.283 L27.373,25.382 C27.153,25.41 26.959,25.421 26.769,25.421 Z M27.977,13.584 L27.167,13.683 C26.605,13.755 25.993,14.49 26.013,15.366 L26.086,20.403 C26.097,21.023 26.432,21.467 26.853,21.417 L27.574,21.317 C28.156,21.245 28.762,20.509 28.746,19.625 L28.664,14.608 C28.653,14.025 28.358,13.584 27.977,13.584 Z"></path>
                <path d="M69.432,30.915 C69.085,30.915 68.738,30.857 68.399,30.742 L67.851,30.55 C65.6,29.768 64.418,26.74 64.418,24.154 L64.401,20.44 C64.401,17.404 65.924,15.291 68.106,15.291 C68.457,15.291 68.807,15.351 69.148,15.468 L69.698,15.662 C71.947,16.428 73.136,19.458 73.136,22.052 L73.136,25.776 C73.136,28.802 71.612,30.915 69.432,30.915 Z M68.48,19.611 C68.435,19.821 68.401,20.093 68.401,20.431 L68.418,24.145 C68.418,25.288 68.786,26.173 69.061,26.584 C69.104,26.376 69.136,26.107 69.136,25.775 L69.136,22.051 C69.136,20.905 68.757,20.015 68.48,19.611 Z"></path>
                <path d="M13.684,30.915 L13.684,30.915 C11.503,30.915 9.98,28.802 9.98,25.776 L9.98,22.052 C9.991,19.45 11.183,16.423 13.441,15.654 L13.95,15.473 C14.308,15.349 14.659,15.29 15.01,15.29 C17.192,15.29 18.715,17.404 18.715,20.431 L18.698,24.162 C18.698,26.739 17.516,29.766 15.258,30.551 L14.741,30.733 C14.378,30.857 14.03,30.915 13.684,30.915 Z M14.636,19.613 C14.362,20.019 13.985,20.911 13.98,22.061 L13.98,25.776 C13.98,26.125 14.016,26.404 14.062,26.617 C14.296,26.252 14.698,25.341 14.698,24.154 L14.715,20.423 C14.714,20.091 14.681,19.822 14.636,19.613 Z"></path>
                <path d="M57.141,25.421 C57.14,25.421 57.14,25.421 57.141,25.421 C56.95,25.421 56.756,25.409 56.56,25.384 L55.797,25.278 C53.163,24.957 51.114,22.44 51.164,19.552 L51.255,14.537 C51.295,11.555 53.665,9.253 56.515,9.62 L57.256,9.713 C59.902,10.052 61.944,12.566 61.905,15.435 L61.824,20.462 C61.762,23.249 59.705,25.421 57.141,25.421 Z M56.002,13.59 C55.547,13.59 55.263,14.025 55.255,14.601 L55.164,19.624 C55.148,20.507 55.759,21.245 56.314,21.312 L57.14,21.421 C57.517,21.421 57.811,20.976 57.825,20.387 L57.905,15.378 C57.917,14.497 57.305,13.754 56.752,13.683 L56.011,13.59 C56.008,13.59 56.005,13.59 56.002,13.59 Z"></path>
            </g>
        </g>
    </g>
</svg>