<?xml version="1.0" encoding="UTF-8"?>
<svg width="83px" height="81px" viewBox="0 0 83 81" version="1.1" xmlns="http://www.w3.org/2000/svg" xmlns:xlink="http://www.w3.org/1999/xlink">
    <!-- Generator: Sketch 47.1 (45422) - http://www.bohemiancoding.com/sketch -->
    <title>film</title>
    <desc>Created with Sketch.</desc>
    <defs></defs>
    <g id="Symbols" stroke="none" stroke-width="1" fill="none" fill-rule="evenodd">
        <g id="film" fill-rule="nonzero" fill="#ffffff">
            <g transform="translate(0.000000, 0.637820)" id="Group">
                <g transform="translate(0.003938, 0.332650)">
                    <path d="M5.9881889,0.03543307 L76.003935,0.03543307 C79.370077,0.03543307 81.992124,2.6574803 81.992124,6.0236219 L81.992124,72.035432 C81.992124,75.36614 79.370077,78.023621 76.003935,78.023621 L5.9881889,78.023621 C2.6574803,78.023621 0,75.36614 0,72.035432 L0,6.0236219 C0,2.6574803 2.6574803,0.03543307 5.9881889,0.03543307 Z M8.9999998,4.03937 L8.9999998,12.011811 L17.007874,12.011811 L17.007874,4.03937 L8.9999998,4.03937 Z M22.996063,4.03937 L22.996063,12.011811 L31.003936,12.011811 L31.003936,4.03937 L22.996063,4.03937 Z M36.992125,4.03937 L36.992125,12.011811 L44.999999,12.011811 L44.999999,4.03937 L36.992125,4.03937 Z M50.988188,4.03937 L50.988188,12.011811 L58.996062,12.011811 L58.996062,4.03937 L50.988188,4.03937 Z M64.984251,4.03937 L64.984251,12.011811 L72.992124,12.011811 L72.992124,4.03937 L64.984251,4.03937 Z M13.003937,16.015748 C9.7086612,16.334645 7.051181,19.027559 7.0157479,22.03937 L7.0157479,56.019684 C7.3346455,59.31496 10.027559,61.97244 13.003937,62.007873 L68.988188,62.007873 C72.283463,61.688975 74.940943,58.996062 75.011809,56.019684 L75.011809,22.03937 C74.657479,18.708661 71.999999,16.086614 68.988188,16.015748 L13.003937,16.015748 Z M27.992125,24.69685 L27.992125,53.291338 C37.381889,48.437007 47.196849,43.228346 55.311022,39.01181 C45.318897,33.767716 37.027558,29.409448 27.992125,24.69685 Z M8.9999998,66.01181 L8.9999998,74.019684 L17.007874,74.019684 L17.007874,66.01181 L8.9999998,66.01181 Z M22.996063,66.01181 L22.996063,74.019684 L31.003936,74.019684 L31.003936,66.01181 L22.996063,66.01181 Z M36.992125,66.01181 L36.992125,74.019684 L44.999999,74.019684 L44.999999,66.01181 L36.992125,66.01181 Z M50.988188,66.01181 L50.988188,74.019684 L58.996062,74.019684 L58.996062,66.01181 L50.988188,66.01181 Z M64.984251,66.01181 L64.984251,74.019684 L72.992124,74.019684 L72.992124,66.01181 L64.984251,66.01181 Z" id="Shape"></path>
                </g>
            </g>
        </g>
    </g>
</svg>