<?xml version="1.0" encoding="UTF-8"?>
<svg width="75px" height="66px" viewBox="0 0 75 66" version="1.1" xmlns="http://www.w3.org/2000/svg" xmlns:xlink="http://www.w3.org/1999/xlink">
    <!-- Generator: Sketch 47.1 (45422) - http://www.bohemiancoding.com/sketch -->
    <title>film</title>
    <desc>Created with Sketch.</desc>
    <defs></defs>
    <g id="Symbols" stroke="none" stroke-width="1" fill="none" fill-rule="evenodd">
        <g id="film" fill-rule="nonzero" fill="#FFFFFF">
            <g id="Group-3">
                <path d="M32.5005185,4.88888889 C17.701037,4.88888889 5.7037037,16.8862222 5.7037037,31.6865185 C5.7037037,46.4868148 17.701037,58.4841481 32.5005185,58.4841481 C47.3008148,58.4841481 59.298963,46.4868148 59.298963,31.6865185 C59.298963,16.8862222 47.3008148,4.88888889 32.5005185,4.88888889 Z M25.6805185,46.956963 C23.2425926,49.3948889 19.2882963,49.3948889 16.8503704,46.956963 C14.4124444,44.519037 14.4124444,40.5655556 16.8503704,38.1268148 C19.2882963,35.6888889 23.2425926,35.6888889 25.6805185,38.1268148 C28.1184444,40.5663704 28.1184444,44.519037 25.6805185,46.956963 Z M26.0602222,25.2445926 C23.6222963,27.6825185 19.6688148,27.6825185 17.2308889,25.2445926 C14.792963,22.8066667 14.792963,18.8523704 17.2308889,16.4144444 C19.6688148,13.9765185 23.6222963,13.9765185 26.0602222,16.4144444 C28.4981481,18.8523704 28.4981481,22.8066667 26.0602222,25.2445926 Z M38.9424444,16.0355556 C41.3811852,13.5976296 45.3338519,13.5976296 47.7717778,16.0355556 C50.2105185,18.4734815 50.2113333,22.426963 47.7725926,24.8648889 C45.3338519,27.3044444 41.3811852,27.3028148 38.9424444,24.8648889 C36.5045185,22.426963 36.5045185,18.4734815 38.9424444,16.0355556 Z M48.1514815,47.3358519 C45.7135556,49.7745926 41.7600741,49.7745926 39.3213333,47.3358519 C36.8834074,44.8979259 36.8834074,40.9452593 39.322963,38.5065185 C41.7600741,36.0685926 45.7135556,36.0685926 48.1514815,38.5065185 C50.5894074,40.9460741 50.5894074,44.8979259 48.1514815,47.3358519 Z" id="Shape"></path>
                <path d="M57.2211852,53.7777778 C51.0562963,60.9122963 41.9482963,65.4337037 31.7777778,65.4337037 L31.7777778,65.4337037 L74.4023704,65.4337037 L74.4023704,53.7777778 L57.2211852,53.7777778 Z" id="Shape"></path>
                <path d="M32.0377037,64.077037 C14.3717037,64.077037 0,49.7045185 0,32.0385185 C0,14.3725185 14.3725185,0 32.0377037,0 C49.7045185,0 64.0762222,14.3725185 64.0762222,32.0385185 C64.0762222,49.7045185 49.7045185,64.077037 32.0377037,64.077037 Z M32.0377037,3.16392593 C16.117037,3.16392593 3.16392593,16.117037 3.16392593,32.0385185 C3.16392593,47.96 16.1162222,60.9131111 32.0377037,60.9131111 C47.9591852,60.9131111 60.9131111,47.9608148 60.9131111,32.0385185 C60.9122963,16.117037 47.9591852,3.16392593 32.0377037,3.16392593 Z" id="Shape"></path>
            </g>
        </g>
    </g>
</svg>