<?xml version="1.0" encoding="UTF-8"?>
<svg width="258px" height="56px" viewBox="0 0 258 56" version="1.1" xmlns="http://www.w3.org/2000/svg" xmlns:xlink="http://www.w3.org/1999/xlink">
    <!-- Generator: Sketch 47.1 (45422) - http://www.bohemiancoding.com/sketch -->
    <title>logo</title>
    <desc>Created with Sketch.</desc>
    <defs></defs>
    <g id="Welcome" stroke="none" stroke-width="1" fill="#ffffff" fill-rule="evenodd">
        <g id="Desktop" transform="translate(-120.000000, -27.000000)">
            <g id="logo" transform="translate(120.000000, 27.000000)">
                <path d="M48.7296997,26.4277382 C49.7565982,26.4277382 50.5062527,26.1565366 50.9798429,25.6138031 C51.4522533,25.0717299 51.6890484,24.0324811 51.6890484,22.4968821 C51.6890484,20.9621084 51.4522533,19.9228597 50.9798429,19.3799611 C50.5062527,18.838053 49.7565982,18.566026 48.7296997,18.566026 L47.553814,18.566026 C47.391681,18.566026 47.3106145,18.6454222 47.3106145,18.8042147 L47.3106145,26.1895496 C47.3106145,26.348342 47.391681,26.4277382 47.553814,26.4277382 L48.7296997,26.4277382 Z M42.4053325,41 C42.1348299,41 42,40.8679481 42,40.6021935 L42,14.3969811 C42,14.1328773 42.1348299,14 42.4053325,14 L48.8918327,14 C50.1346277,14 51.26366,14.15252 52.276907,14.4567346 C53.2906597,14.7612794 54.1417737,15.2506969 54.8309232,15.9259776 C55.5204099,16.600763 56.0536623,17.4812193 56.4325345,18.566026 C56.8105639,19.6519881 57,20.9621084 57,22.4968821 C57,24.0324811 56.8105639,25.3358338 56.4325345,26.4080955 C56.0536623,27.4798621 55.5062527,28.3532206 54.7903057,29.0285012 C54.0740216,29.7034517 53.215492,30.1998019 52.2164021,30.5173868 C51.2157953,30.8349718 50.1081673,30.9937642 48.8918327,30.9937642 L47.553814,30.9937642 C47.391681,30.9937642 47.3106145,31.0731604 47.3106145,31.2319529 L47.3106145,40.6021935 C47.3106145,40.8679481 47.1754475,41 46.905282,41 L42.4053325,41 Z" id="Fill-1" fill="#5E2B86"></path>
                <path d="M70.4793552,42 C68.1630626,42 66.3374868,41.349898 65.0027979,40.0488494 C63.6670896,38.7486454 63,36.7851618 63,34.1570468 L63,14.4063137 C63,14.1360011 63.1359327,14 63.4086476,14 L67.9454004,14 C68.2176055,14 68.354048,14.1360011 68.354048,14.4063137 L68.354048,34.8071488 C68.354048,35.5385135 68.5380668,36.1213752 68.9059346,36.5547202 C69.2736325,36.9884031 69.7979927,37.2048222 70.4793552,37.2048222 C71.1877343,37.2048222 71.7258578,36.9884031 72.0940654,36.5547202 C72.4619332,36.1213752 72.6456122,35.5385135 72.6456122,34.8071488 L72.6456122,14.4063137 C72.6456122,14.1360011 72.7818847,14 73.0542598,14 L77.5905028,14 C77.8640673,14 78,14.1360011 78,14.4063137 L78,34.1570468 C78,36.7851618 77.3324007,38.7486454 75.9972021,40.0488494 C74.6616636,41.349898 72.8228344,42 70.4793552,42" id="Fill-3" fill="#5E2B86"></path>
                <path d="M89.8240079,25.9513609 C90.8649032,25.9513609 91.6253668,25.6931993 92.1055697,25.1770413 C92.5849182,24.6610483 92.8246779,23.6881557 92.8246779,22.2586934 C92.8246779,20.8559717 92.5849182,19.8901768 92.1055697,19.3603184 C91.6253668,18.8309552 90.8649032,18.566026 89.8240079,18.566026 L88.6317034,18.566026 C88.4673065,18.566026 88.3851081,18.6454222 88.3851081,18.8042147 L88.3851081,25.7131722 C88.3851081,25.8719646 88.4673065,25.9513609 88.6317034,25.9513609 L89.8240079,25.9513609 Z M93.811059,41 C93.592148,41 93.4415933,40.8946886 93.3593949,40.6824151 L90.194328,30.4379906 L88.6317034,30.4379906 C88.4673065,30.4379906 88.3851081,30.5173868 88.3851081,30.6761793 L88.3851081,40.6021935 C88.3851081,40.8679481 88.2475411,41 87.9741159,41 L83.4118466,41 C83.137567,41 83,40.8679481 83,40.6021935 L83,14.3969811 C83,14.1328773 83.137567,14 83.4118466,14 L90.0706032,14 C91.3035796,14 92.4275278,14.15252 93.4415933,14.4567346 C94.4546335,14.7612794 95.3181442,15.2376568 96.0311003,15.8861969 C96.7432019,16.5352322 97.2909066,17.3816851 97.6750689,18.4272064 C98.0583768,19.4732228 98.2504579,20.7498349 98.2504579,22.2586934 C98.2504579,23.9798254 97.9693427,25.4023549 97.4077958,26.5271073 C96.846249,27.65252 96.0856144,28.532151 95.1269175,29.1673208 L98.9495718,40.6021935 C99.0586001,40.8679481 98.9910983,41 98.744503,41 L93.811059,41 Z" id="Fill-5" fill="#5E2B86"></path>
                <path d="M112.729886,26.4277382 C113.756424,26.4277382 114.506399,26.1565366 114.979978,25.6138031 C115.452715,25.0717299 115.689168,24.0324811 115.689168,22.4968821 C115.689168,20.9621084 115.452715,19.9228597 114.979978,19.3799611 C114.506399,18.838053 113.756424,18.566026 112.729886,18.566026 L111.554026,18.566026 C111.391897,18.566026 111.310832,18.6454222 111.310832,18.8042147 L111.310832,26.1895496 C111.310832,26.348342 111.391897,26.4277382 111.554026,26.4277382 L112.729886,26.4277382 Z M106.406166,41 C106.13567,41 106,40.8679481 106,40.6021935 L106,14.3969811 C106,14.1328773 106.13567,14 106.406166,14 L112.892015,14 C114.134445,14 115.263283,14.15252 116.277013,14.4567346 C117.290743,14.7612794 118.142344,15.2506969 118.830972,15.9259776 C119.520443,16.600763 120.053684,17.4812193 120.432547,18.566026 C120.810568,19.6519881 121,20.9621084 121,22.4968821 C121,24.0324811 120.810568,25.3358338 120.432547,26.4080955 C120.053684,27.4798621 119.505949,28.3532206 118.790861,29.0285012 C118.074087,29.7034517 117.215577,30.1998019 116.21651,30.5173868 C115.216431,30.8349718 114.107985,30.9937642 112.892015,30.9937642 L111.554026,30.9937642 C111.391897,30.9937642 111.310832,31.0731604 111.310832,31.2319529 L111.310832,40.6021935 C111.310832,40.8679481 111.175163,41 110.905509,41 L106.406166,41 Z" id="Fill-7" fill="#5E2B86"></path>
                <path d="M126,14.3969811 C126,14.1328773 126.136377,14 126.408283,14 L130.931245,14 C131.202135,14 131.338511,14.1328773 131.338511,14.3969811 L131.338511,36.0762783 C131.338511,36.2350708 131.419998,36.314467 131.582973,36.314467 L138.592564,36.314467 C138.863623,36.314467 139,36.4470142 139,36.710953 L139,40.6021935 C139,40.8679481 138.863623,41 138.592564,41 L126.408283,41 C126.136377,41 126,40.8679481 126,40.6021935 L126,14.3969811 Z" id="Fill-9" fill="#5E2B86"></path>
                <path d="M144,14.3969811 C144,14.1328773 144.137237,14 144.410858,14 L156.589994,14 C156.862763,14 157,14.1328773 157,14.3969811 L157,18.2882217 C157,18.5531509 156.862763,18.6852028 156.589994,18.6852028 L149.618189,18.6852028 C149.454187,18.6852028 149.372185,18.7645991 149.372185,18.9237217 L149.372185,24.7997029 C149.372185,24.9584953 149.454187,25.0378916 149.618189,25.0378916 L155.646554,25.0378916 C155.919323,25.0378916 156.05656,25.1707688 156.05656,25.4353679 L156.05656,29.3261133 C156.05656,29.5910425 155.919323,29.7234245 155.646554,29.7234245 L149.618189,29.7234245 C149.454187,29.7234245 149.372185,29.8028208 149.372185,29.9616132 L149.372185,36.0762783 C149.372185,36.2350708 149.454187,36.314467 149.618189,36.314467 L156.589994,36.314467 C156.862763,36.314467 157,36.4470142 157,36.710953 L157,40.6021935 C157,40.8679481 156.862763,41 156.589994,41 L144.410858,41 C144.137237,41 144,40.8679481 144,40.6021935 L144,14.3969811 Z" id="Fill-11" fill="#5E2B86"></path>
                <path d="M179.254043,36.0762783 C179.254043,36.2350708 179.334241,36.314467 179.494637,36.314467 L180.778636,36.314467 C181.446396,36.314467 181.967265,36.1891827 182.342077,35.9371286 C182.71689,35.6860649 183.010671,35.2560707 183.225088,34.6468161 C183.305119,34.4353679 183.371144,34.183809 183.424999,33.8924694 C183.478186,33.6012948 183.525538,33.197546 183.56522,32.6815531 C183.605736,32.1650649 183.631912,31.4968821 183.645418,30.6761793 C183.658923,29.8559717 183.665592,28.7970802 183.665592,27.5 C183.665592,26.203415 183.658923,25.1440283 183.645418,24.3233255 C183.631912,23.5031179 183.605736,22.8344399 183.56522,22.3184469 C183.525538,21.8019588 183.478186,21.3987052 183.424999,21.1075306 C183.371144,20.816191 183.305119,20.5651273 183.225088,20.3528538 C183.010671,19.7444245 182.71689,19.3144303 182.342077,19.0623762 C181.967265,18.8113124 181.446396,18.6850378 180.778636,18.6850378 L179.494637,18.6850378 C179.334241,18.6850378 179.254043,18.764434 179.254043,18.9237217 L179.254043,36.0762783 Z M174,14.3969811 C174,14.1328773 174.134219,14 174.401823,14 L181.299505,14 C183.198077,14 184.708164,14.3642983 185.831768,15.0919045 C186.954538,15.8201709 187.770022,16.9518561 188.278219,18.4866297 C188.384594,18.8576957 188.484966,19.2746497 188.578669,19.7373267 C188.672373,20.2006639 188.75257,20.7698078 188.819263,21.4447583 C188.885956,22.1200389 188.933307,22.9405766 188.959484,23.9063715 C188.986495,24.8733218 189,26.0705377 189,27.5 C189,28.9291321 188.986495,30.1271734 188.959484,31.0932984 C188.933307,32.0597535 188.885956,32.8799611 188.819263,33.5549116 C188.75257,34.229697 188.672373,34.7993361 188.578669,35.2623432 C188.484966,35.7256804 188.384594,36.1427995 188.278219,36.5128751 C187.770022,38.0481439 186.954538,39.1798291 185.831768,39.9077654 C184.708164,40.6355366 183.198077,41 181.299505,41 L174.401823,41 C174.134219,41 174,40.8679481 174,40.6021935 L174,14.3969811 Z" id="Fill-13" fill="#5E2B86"></path>
                <path d="M202.5,37.2666262 C203.004666,37.2666262 203.417785,37.1400493 203.736871,36.8853947 C204.055956,36.6317407 204.281837,36.3175499 204.415342,35.9426557 C204.468246,35.7822249 204.514351,35.5884406 204.554651,35.3613027 C204.594122,35.1341648 204.620989,34.7529333 204.634423,34.2181086 C204.647027,33.6831171 204.66046,32.927992 204.673894,31.9513991 C204.687327,30.9753064 204.694127,29.658507 204.694127,28.0003335 C204.694127,26.3423269 204.687327,25.0251939 204.673894,24.0486009 C204.66046,23.0730086 204.647027,22.3177167 204.634423,21.7823917 C204.620989,21.247567 204.594122,20.866669 204.554651,20.6391976 C204.514351,20.4120597 204.468246,20.2177751 204.415342,20.0573443 C204.281837,19.6832839 204.055956,19.3692599 203.736871,19.1147721 C203.417785,18.8609513 203.004666,18.7335406 202.5,18.7335406 C201.994505,18.7335406 201.582215,18.8609513 201.263129,19.1147721 C200.944044,19.3692599 200.718163,19.6832839 200.585487,20.0573443 C200.531754,20.2177751 200.485649,20.4120597 200.445349,20.6391976 C200.405878,20.866669 200.379011,21.247567 200.365577,21.7823917 C200.352144,22.3177167 200.33871,23.0730086 200.326106,24.0486009 C200.312673,25.0251939 200.305873,26.3423269 200.305873,28.0003335 C200.305873,29.658507 200.312673,30.9753064 200.326106,31.9513991 C200.33871,32.927992 200.352144,33.6831171 200.365577,34.2181086 C200.379011,34.7529333 200.405878,35.1341648 200.445349,35.3613027 C200.485649,35.5884406 200.531754,35.7822249 200.585487,35.9426557 C200.718163,36.3175499 200.944044,36.6317407 201.263129,36.8853947 C201.582215,37.1400493 201.994505,37.2666262 202.5,37.2666262 M202.5,42 C198.882593,42 196.569389,40.4625666 195.558399,37.3873661 C195.45259,37.0661711 195.359386,36.732135 195.279614,36.3842571 C195.199843,36.0368795 195.140139,35.5285709 195.099839,34.8598316 C195.060368,34.1914257 195.033501,33.3222314 195.020067,32.2524152 C195.006634,31.1830993 195,29.7649049 195,28.0003335 C195,26.2350951 195.006634,24.8179013 195.020067,23.7480851 C195.033501,22.6787693 195.060368,21.8094081 195.099839,21.1403352 C195.140139,20.4724297 195.199843,19.9641211 195.279614,19.6162432 C195.359386,19.2688656 195.45259,18.9339956 195.558399,18.6131342 C196.569389,15.5379337 198.882593,14 202.5,14 C206.116578,14 208.430611,15.5379337 209.441601,18.6131342 C209.54741,18.9339956 209.640614,19.2688656 209.720386,19.6162432 C209.800157,19.9641211 209.86069,20.4724297 209.900161,21.1403352 C209.940462,21.8094081 209.966499,22.6787693 209.979933,23.7480851 C209.993366,24.8179013 210,26.2350951 210,28.0003335 C210,29.7649049 209.993366,31.1830993 209.979933,32.2524152 C209.966499,33.3222314 209.940462,34.1914257 209.900161,34.8598316 C209.86069,35.5285709 209.800157,36.0368795 209.720386,36.3842571 C209.640614,36.732135 209.54741,37.0661711 209.441601,37.3873661 C208.430611,40.4625666 206.116578,42 202.5,42" id="Fill-15" fill="#5E2B86"></path>
                <path d="M223.5,37.2666262 C224.004666,37.2666262 224.417785,37.1400493 224.736871,36.8853947 C225.055956,36.6317407 225.281837,36.3175499 225.415342,35.9426557 C225.468246,35.7822249 225.514351,35.5884406 225.554651,35.3613027 C225.594122,35.1341648 225.620989,34.7529333 225.634423,34.2181086 C225.647027,33.6831171 225.66046,32.927992 225.673894,31.9513991 C225.687327,30.9753064 225.694127,29.658507 225.694127,28.0003335 C225.694127,26.3423269 225.687327,25.0251939 225.673894,24.0486009 C225.66046,23.0730086 225.647027,22.3177167 225.634423,21.7823917 C225.620989,21.247567 225.594122,20.866669 225.554651,20.6391976 C225.514351,20.4120597 225.468246,20.2177751 225.415342,20.0573443 C225.281837,19.6832839 225.055956,19.3692599 224.736871,19.1147721 C224.417785,18.8609513 224.004666,18.7335406 223.5,18.7335406 C222.994505,18.7335406 222.582215,18.8609513 222.263129,19.1147721 C221.944044,19.3692599 221.718163,19.6832839 221.585487,20.0573443 C221.531754,20.2177751 221.485649,20.4120597 221.445349,20.6391976 C221.405878,20.866669 221.379011,21.247567 221.365577,21.7823917 C221.352144,22.3177167 221.33871,23.0730086 221.326106,24.0486009 C221.312673,25.0251939 221.305873,26.3423269 221.305873,28.0003335 C221.305873,29.658507 221.312673,30.9753064 221.326106,31.9513991 C221.33871,32.927992 221.352144,33.6831171 221.365577,34.2181086 C221.379011,34.7529333 221.405878,35.1341648 221.445349,35.3613027 C221.485649,35.5884406 221.531754,35.7822249 221.585487,35.9426557 C221.718163,36.3175499 221.944044,36.6317407 222.263129,36.8853947 C222.582215,37.1400493 222.994505,37.2666262 223.5,37.2666262 M223.5,42 C219.882593,42 217.569389,40.4625666 216.558399,37.3873661 C216.45259,37.0661711 216.359386,36.732135 216.279614,36.3842571 C216.199843,36.0368795 216.140139,35.5285709 216.099839,34.8598316 C216.060368,34.1914257 216.033501,33.3222314 216.020067,32.2524152 C216.006634,31.1830993 216,29.7649049 216,28.0003335 C216,26.2350951 216.006634,24.8179013 216.020067,23.7480851 C216.033501,22.6787693 216.060368,21.8094081 216.099839,21.1403352 C216.140139,20.4724297 216.199843,19.9641211 216.279614,19.6162432 C216.359386,19.2688656 216.45259,18.9339956 216.558399,18.6131342 C217.569389,15.5379337 219.882593,14 223.5,14 C227.116578,14 229.430611,15.5379337 230.441601,18.6131342 C230.54741,18.9339956 230.640614,19.2688656 230.720386,19.6162432 C230.800157,19.9641211 230.86069,20.4724297 230.900161,21.1403352 C230.940462,21.8094081 230.966499,22.6787693 230.979933,23.7480851 C230.993366,24.8179013 231,26.2350951 231,28.0003335 C231,29.7649049 230.993366,31.1830993 230.979933,32.2524152 C230.966499,33.3222314 230.940462,34.1914257 230.900161,34.8598316 C230.86069,35.5285709 230.800157,36.0368795 230.720386,36.3842571 C230.640614,36.732135 230.54741,37.0661711 230.441601,37.3873661 C229.430611,40.4625666 227.116578,42 223.5,42" id="Fill-17" fill="#5E2B86"></path>
                <path d="M245.824008,25.9513609 C246.864903,25.9513609 247.625367,25.6931993 248.10557,25.1770413 C248.584918,24.6610483 248.824678,23.6881557 248.824678,22.2586934 C248.824678,20.8559717 248.584918,19.8901768 248.10557,19.3603184 C247.625367,18.8309552 246.864903,18.566026 245.824008,18.566026 L244.631703,18.566026 C244.467307,18.566026 244.385108,18.6454222 244.385108,18.8042147 L244.385108,25.7131722 C244.385108,25.8719646 244.467307,25.9513609 244.631703,25.9513609 L245.824008,25.9513609 Z M249.811059,41 C249.592148,41 249.441593,40.8946886 249.359395,40.6824151 L246.194328,30.4379906 L244.631703,30.4379906 C244.467307,30.4379906 244.385108,30.5173868 244.385108,30.6761793 L244.385108,40.6021935 C244.385108,40.8679481 244.247541,41 243.974116,41 L239.411847,41 C239.137567,41 239,40.8679481 239,40.6021935 L239,14.3969811 C239,14.1328773 239.137567,14 239.411847,14 L246.070603,14 C247.30358,14 248.427528,14.15252 249.441593,14.4567346 C250.454804,14.7612794 251.318144,15.2376568 252.0311,15.8861969 C252.743202,16.5352322 253.290907,17.3816851 253.675069,18.4272064 C254.058377,19.4732228 254.250458,20.7498349 254.250458,22.2586934 C254.250458,23.9798254 253.969343,25.4023549 253.407796,26.5271073 C252.846249,27.65252 252.085614,28.532151 251.126918,29.1673208 L254.949572,40.6021935 C255.0586,40.8679481 254.991098,41 254.744503,41 L249.811059,41 Z" id="Fill-19" fill="#5E2B86"></path>
                <g id="Group-23"></g>
                <polygon id="Fill-21" fill="#5E2B86" points="0 0 0 56 258 56 258 51.2050263 32.7082855 51.2050263 32.7082855 4.79480471 258 4.79480471 258 0"></polygon>
                <path d="M7,28 L13,28 L13,25 L7,25 L7,28 Z M7.81685004,27.2396019 L12.18315,27.2396019 L12.18315,25.7602255 L7.81685004,25.7602255 L7.81685004,27.2396019 Z" id="Fill-24" fill="#FFFFFF"></path>
            </g>
        </g>
    </g>
</svg>