<?xml version="1.0" encoding="UTF-8"?>
<svg width="90px" height="66px" viewBox="0 0 90 66" version="1.1" xmlns="http://www.w3.org/2000/svg" xmlns:xlink="http://www.w3.org/1999/xlink">
    <!-- Generator: Sketch 47.1 (45422) - http://www.bohemiancoding.com/sketch -->
    <title>mail</title>
    <desc>Created with Sketch.</desc>
    <defs></defs>
    <g id="Symbols" stroke="none" stroke-width="1" fill="none" fill-rule="evenodd">
        <g id="mail" fill-rule="nonzero" fill="#ffffff">
            <g id="noun_429221_cc">
                <path d="M89.882,9.051 L64.523,33 L89.881,56.951 C89.951,56.477 90,55.994 90,55.5 L90,10.5 C90,10.006 89.952,9.525 89.882,9.051 Z" id="Shape"></path>
                <path d="M50.553,39.314 L87.741,4.192 C85.904,1.943 83.113,0.5 80,0.5 L10,0.5 C6.887,0.5 4.096,1.943 2.258,4.191 L39.447,39.315 C42.457,42.158 47.544,42.158 50.553,39.314 Z" id="Shape"></path>
                <path d="M0.118,9.049 C0.049,9.523 0,10.006 0,10.5 L0,55.5 C0,55.994 0.049,56.477 0.118,56.951 L25.476,32.998 L0.118,9.049 Z" id="Shape"></path>
                <path d="M53.986,42.95 C51.508,45.292 48.254,46.462 45,46.462 C41.745,46.462 38.491,45.292 36.014,42.95 L29.118,36.437 L2.259,61.809 C4.096,64.057 6.887,65.5 10,65.5 L80,65.5 C83.113,65.5 85.904,64.057 87.741,61.809 L60.882,36.438 L53.986,42.95 Z" id="Shape"></path>
            </g>
        </g>
    </g>
</svg>