<?xml version="1.0" encoding="UTF-8"?>
<svg width="18px" height="12px" viewBox="0 0 18 12" version="1.1" xmlns="http://www.w3.org/2000/svg" xmlns:xlink="http://www.w3.org/1999/xlink">
    <!-- Generator: Sketch 47.1 (45422) - http://www.bohemiancoding.com/sketch -->
    <title>mail</title>
    <desc>Created with Sketch.</desc>
    <defs></defs>
    <g id="Symbols" stroke="none" stroke-width="1" fill="none" fill-rule="evenodd">
        <g id="mail" fill="#919191">
            <g id="Page-1">
                <path d="M1.708,1 C1.317,1 1,1.317 1,1.707 L1,9.793 C1,10.183 1.317,10.5 1.708,10.5 L15.543,10.5 C15.933,10.5 16.25,10.183 16.25,9.793 L16.25,1.707 C16.25,1.317 15.933,1 15.543,1 L1.708,1 Z M15.543,11.5 L1.708,11.5 C0.767,11.5 0,10.734 0,9.793 L0,1.707 C0,0.766 0.767,0 1.708,0 L15.543,0 C16.484,0 17.25,0.766 17.25,1.707 L17.25,9.793 C17.25,10.734 16.484,11.5 15.543,11.5 L15.543,11.5 Z" id="Fill-1"></path>
                <path d="M8.625,6.25 C8.538,6.25 8.451,6.228 8.374,6.183 L1.916,2.433 C1.677,2.294 1.596,1.988 1.734,1.749 C1.873,1.509 2.18,1.43 2.418,1.567 L8.628,5.173 L14.837,1.648 C15.076,1.512 15.382,1.595 15.519,1.836 C15.655,2.076 15.571,2.381 15.331,2.518 L8.872,6.185 C8.795,6.229 8.71,6.25 8.625,6.25" id="Fill-3"></path>
            </g>
        </g>
    </g>
</svg>