<?xml version="1.0" encoding="UTF-8"?>
<svg width="90px" height="90px" viewBox="0 0 90 90" version="1.1" xmlns="http://www.w3.org/2000/svg" xmlns:xlink="http://www.w3.org/1999/xlink">
    <!-- Generator: Sketch 47.1 (45422) - http://www.bohemiancoding.com/sketch -->
    <title>phone</title>
    <desc>Created with Sketch.</desc>
    <defs></defs>
    <g id="Symbols" stroke="none" stroke-width="1" fill="none" fill-rule="evenodd">
        <g id="phone" fill-rule="nonzero" fill="#ffffff">
            <g id="Shape">
                <path d="M89.593,71.755 L89.121,70.391 C88.071,67.224 84.629,63.952 81.42,63.063 L69.583,59.845 C66.382,58.969 61.805,60.147 59.471,62.506 L55.157,66.773 C39.631,62.583 27.445,50.367 23.25,34.832 L27.513,30.552 C29.842,28.206 31.015,23.637 30.165,20.415 L26.927,8.608 C26.064,5.395 22.761,1.931 19.638,0.846 L18.286,0.417 C15.149,-0.662 10.602,0.43 8.298,2.78 L1.85,9.186 C0.741,10.325 0.009,13.559 0.009,13.577 C-0.242,33.902 7.753,53.487 22.141,67.857 C36.486,82.202 55.978,90.176 76.213,89.997 C76.341,89.997 79.677,89.262 80.842,88.131 L87.226,81.73 C89.593,79.388 90.635,74.891 89.593,71.755 Z"></path>
            </g>
        </g>
    </g>
</svg>